<svg width="1376" height="112" viewBox="0 0 1376 112" fill="none" xmlns="http://www.w3.org/2000/svg">
<g clip-path="url(#clip0_118_2)">
<path d="M2.983 110H80.016V97.633H16.393V60.234H72.566V48.91H16.393V15.236H78.228V3.465H2.983V110ZM139.381 112.086C152.94 112.086 163.817 108.212 171.267 100.911C178.866 93.461 183.932 81.541 184.081 70.962H170.82C169.479 86.607 159.943 100.315 139.828 100.315C117.627 100.315 103.174 82.733 103.174 56.658C103.174 31.626 116.286 12.703 139.679 12.703C156.516 12.703 167.095 21.792 169.628 35.053H182.74C179.909 15.385 164.86 1.081 139.977 1.081C108.24 1.081 89.4659 25.368 89.4659 56.658C89.4659 88.991 109.134 112.086 139.381 112.086ZM247.255 112.235C279.439 112.235 299.405 88.544 299.405 56.658C299.405 24.772 279.439 1.081 247.255 1.081C215.071 1.081 195.105 24.772 195.105 56.658C195.105 88.544 215.071 112.235 247.255 112.235ZM247.255 100.464C222.223 100.464 208.813 81.69 208.813 56.658C208.813 31.626 222.223 12.703 247.255 12.703C272.287 12.703 285.697 31.626 285.697 56.658C285.697 81.69 272.287 100.464 247.255 100.464ZM379.336 112.086C402.282 112.086 418.523 100.911 418.523 80.945C418.523 56.956 399.6 51.89 378.889 47.718C362.946 44.589 351.026 41.013 351.026 28.944C351.026 17.918 360.562 11.809 375.015 11.809C390.66 11.809 400.494 19.408 402.431 34.606H415.096C412.414 14.938 401.388 1.379 374.717 1.379C353.112 1.379 338.51 11.958 338.51 29.54C338.51 49.655 354.602 55.019 373.376 59.191C392.448 63.363 405.262 66.79 405.262 81.392C405.262 94.653 394.683 101.358 379.932 101.358C359.817 101.358 348.791 91.971 347.003 73.942H333.891C335.083 95.398 349.387 112.086 379.336 112.086ZM451.352 110H464.762L485.622 34.904C487.41 28.646 489.645 18.663 489.645 18.663H489.943C489.943 18.663 492.178 28.646 493.817 34.904L513.336 110H526.15L555.801 3.465H542.242L524.511 72.75C522.872 79.306 520.339 90.779 520.339 90.779H520.041C520.041 90.779 517.657 79.604 515.72 72.452L497.095 3.465H482.642L463.421 72.452C461.484 79.455 458.951 90.779 458.951 90.779H458.653C458.653 90.779 456.418 79.902 454.63 72.75L437.793 3.465H423.787L451.352 110ZM551.238 110H564.946L576.419 77.518H618.884L630.208 110H644.81L605.474 3.465H590.425L551.238 110ZM592.958 30.881C595.044 24.772 597.875 15.832 597.875 15.832H598.173C598.173 15.832 600.855 24.921 602.941 30.881L615.159 66.641H580.293L592.958 30.881ZM636.256 15.236H671.718V110H685.128V15.236H720.59V3.465H636.256V15.236ZM773.102 112.086C786.661 112.086 797.538 108.212 804.988 100.911C812.587 93.461 817.653 81.541 817.802 70.962H804.541C803.2 86.607 793.664 100.315 773.549 100.315C751.348 100.315 736.895 82.733 736.895 56.658C736.895 31.626 750.007 12.703 773.4 12.703C790.237 12.703 800.816 21.792 803.349 35.053H816.461C813.63 15.385 798.581 1.081 773.698 1.081C741.961 1.081 723.187 25.368 723.187 56.658C723.187 88.991 742.855 112.086 773.102 112.086ZM832.849 110H846.259V59.638H903.177V110H916.587V3.465H903.177V48.761H846.259V3.465H832.849V110ZM961.804 110H1009.33C1020.81 110 1030.05 106.275 1036.01 99.868C1040.92 94.653 1043.75 87.65 1043.75 79.455C1043.75 65.151 1034.37 56.509 1022.3 53.678V53.231C1032.88 49.953 1039.43 42.652 1039.43 30.881C1039.43 23.282 1036.9 17.173 1032.58 12.703C1026.62 6.44499 1018.13 3.465 1006.95 3.465H961.804V110ZM975.214 97.931V60.383H1007.84C1020.81 60.383 1030.19 66.939 1030.19 80.2C1030.19 85.266 1028.41 89.438 1025.43 92.567C1021.85 95.994 1016.34 97.931 1008.74 97.931H975.214ZM975.214 49.059V15.087H1007.1C1019.02 15.087 1026.02 21.345 1026.02 31.626C1026.02 42.652 1018.27 49.059 1005.31 49.059H975.214ZM1106.55 112.235C1138.73 112.235 1158.7 88.544 1158.7 56.658C1158.7 24.772 1138.73 1.081 1106.55 1.081C1074.36 1.081 1054.4 24.772 1054.4 56.658C1054.4 88.544 1074.36 112.235 1106.55 112.235ZM1106.55 100.464C1081.52 100.464 1068.11 81.69 1068.11 56.658C1068.11 31.626 1081.52 12.703 1106.55 12.703C1131.58 12.703 1144.99 31.626 1144.99 56.658C1144.99 81.69 1131.58 100.464 1106.55 100.464ZM1222.81 112.235C1254.99 112.235 1274.96 88.544 1274.96 56.658C1274.96 24.772 1254.99 1.081 1222.81 1.081C1190.62 1.081 1170.66 24.772 1170.66 56.658C1170.66 88.544 1190.62 112.235 1222.81 112.235ZM1222.81 100.464C1197.78 100.464 1184.37 81.69 1184.37 56.658C1184.37 31.626 1197.78 12.703 1222.81 12.703C1247.84 12.703 1261.25 31.626 1261.25 56.658C1261.25 81.69 1247.84 100.464 1222.81 100.464ZM1290.94 110H1304.35V72.303L1321.49 55.168L1361.57 110H1377.21L1330.58 46.079L1373.64 3.465H1356.8L1304.35 56.36V3.465H1290.94V110Z" fill="black"/>
</g>
<defs>
<clipPath id="clip0_118_2">
<rect width="1376" height="112" fill="white"/>
</clipPath>
</defs>
</svg>
