<svg width="1379" height="117" viewBox="0 0 1379 117" fill="none" xmlns="http://www.w3.org/2000/svg">
<g clip-path="url(#clip0_849_21)">
<path d="M0.385 114V3.17499H78.66V15.42H14.335V50.45H72.77V62.23H14.335V101.135H80.52V114H0.385ZM137.625 116.17C122.022 116.17 109.467 110.797 99.9604 100.05C90.4537 89.3033 85.7004 75.4567 85.7004 58.51C85.7004 41.77 90.4021 27.975 99.8054 17.125C109.312 6.17167 122.125 0.694999 138.245 0.694999C150.852 0.694999 161.03 3.95 168.78 10.46C176.53 16.97 181.18 25.495 182.73 36.035H169.09C167.747 29.0083 164.337 23.3767 158.86 19.14C153.487 14.9033 146.512 12.785 137.935 12.785C126.052 12.785 116.752 17.0733 110.035 25.65C103.319 34.1233 99.9604 45.0767 99.9604 58.51C99.9604 72.15 103.422 83.155 110.345 91.525C117.372 99.7917 126.62 103.925 138.09 103.925C148.01 103.925 155.657 101.032 161.03 95.245C166.507 89.4583 169.607 82.1733 170.33 73.39H184.125C184.022 78.8667 182.73 84.4983 180.25 90.285C177.874 95.9683 174.722 100.722 170.795 104.545C162.839 112.295 151.782 116.17 137.625 116.17ZM284.563 100.05C274.746 110.9 261.623 116.325 245.193 116.325C228.763 116.325 215.588 110.9 205.668 100.05C195.851 89.2 190.943 75.3533 190.943 58.51C190.943 41.6667 195.851 27.82 205.668 16.97C215.588 6.12 228.763 0.694999 245.193 0.694999C261.623 0.694999 274.746 6.12 284.563 16.97C294.483 27.82 299.443 41.6667 299.443 58.51C299.443 75.3533 294.483 89.2 284.563 100.05ZM215.743 91.37C222.77 99.8433 232.586 104.08 245.193 104.08C257.8 104.08 267.616 99.8433 274.643 91.37C281.67 82.8967 285.183 71.9433 285.183 58.51C285.183 45.0767 281.67 34.1233 274.643 25.65C267.616 17.0733 257.8 12.785 245.193 12.785C232.586 12.785 222.77 17.0733 215.743 25.65C208.716 34.1233 205.203 45.0767 205.203 58.51C205.203 71.9433 208.716 82.8967 215.743 91.37ZM381.043 116.17C366.163 116.17 354.693 112.502 346.633 105.165C338.677 97.8283 334.388 88.27 333.768 76.49H347.408C349.268 95.5033 360.687 105.01 381.663 105.01C389.62 105.01 395.975 103.253 400.728 99.74C405.585 96.1233 408.013 90.9567 408.013 84.24C408.013 81.2433 407.445 78.6083 406.308 76.335C405.172 74.0617 403.777 72.2017 402.123 70.755C400.573 69.3083 398.197 67.965 394.993 66.725C391.79 65.485 388.793 64.5033 386.003 63.78C383.317 63.0567 379.597 62.1783 374.843 61.145C369.16 59.905 364.458 58.665 360.738 57.425C357.018 56.0817 353.298 54.2733 349.578 52C345.858 49.7267 343.068 46.8333 341.208 43.32C339.452 39.7033 338.573 35.3633 338.573 30.3C338.573 21.2067 341.983 14.0767 348.803 8.90999C355.727 3.63999 364.872 1.005 376.238 1.005C401.142 1.005 415.143 12.5267 418.243 35.57H405.068C404.035 27.7167 401.09 21.8267 396.233 17.9C391.377 13.87 384.815 11.855 376.548 11.855C368.902 11.855 362.805 13.405 358.258 16.505C353.815 19.605 351.593 23.9967 351.593 29.68C351.593 32.16 352.058 34.3817 352.988 36.345C354.022 38.205 355.313 39.8067 356.863 41.15C358.517 42.39 360.635 43.5267 363.218 44.56C365.905 45.5933 368.54 46.4717 371.123 47.195C373.707 47.815 376.858 48.4867 380.578 49.21C385.745 50.2433 389.982 51.225 393.288 52.155C396.595 52.9817 400.263 54.2733 404.293 56.03C408.323 57.7867 411.423 59.8017 413.593 62.075C415.867 64.3483 417.778 67.345 419.328 71.065C420.982 74.6817 421.808 78.9183 421.808 83.775C421.808 93.9017 418.037 101.858 410.493 107.645C403.053 113.328 393.237 116.17 381.043 116.17ZM451.309 114L422.634 3.17499H437.204L454.719 75.25L458.904 94.005H459.214C460.971 86.1517 462.521 79.7967 463.864 74.94L483.859 3.17499H498.894L518.269 74.94L522.764 94.005H523.074C524.831 86.0483 526.277 79.7967 527.414 75.25L545.859 3.17499H559.964L529.119 114H515.789L495.484 35.88L491.454 18.985H491.144C489.594 25.9083 488.199 31.54 486.959 35.88L465.259 114H451.309ZM550.567 114L591.332 3.17499H606.987L647.907 114H632.717L620.937 80.21H576.762L564.827 114H550.567ZM593.967 31.695L580.792 68.895H617.062L604.352 31.695L599.392 16.04H599.082C597.119 22.24 595.414 27.4583 593.967 31.695ZM634.359 15.42V3.17499H722.089V15.42H685.199V114H671.249V15.42H634.359ZM772.066 116.17C756.462 116.17 743.907 110.797 734.401 100.05C724.894 89.3033 720.141 75.4567 720.141 58.51C720.141 41.77 724.842 27.975 734.246 17.125C743.752 6.17167 756.566 0.694999 772.686 0.694999C785.292 0.694999 795.471 3.95 803.221 10.46C810.971 16.97 815.621 25.495 817.171 36.035H803.531C802.187 29.0083 798.777 23.3767 793.301 19.14C787.927 14.9033 780.952 12.785 772.376 12.785C760.492 12.785 751.192 17.0733 744.476 25.65C737.759 34.1233 734.401 45.0767 734.401 58.51C734.401 72.15 737.862 83.155 744.786 91.525C751.812 99.7917 761.061 103.925 772.531 103.925C782.451 103.925 790.097 101.032 795.471 95.245C800.947 89.4583 804.047 82.1733 804.771 73.39H818.566C818.462 78.8667 817.171 84.4983 814.691 90.285C812.314 95.9683 809.162 100.722 805.236 104.545C797.279 112.295 786.222 116.17 772.066 116.17ZM829.568 114V3.17499H843.518V50.295H902.728V3.17499H916.678V114H902.728V61.61H843.518V114H829.568ZM960.616 114V3.17499H1007.58C1019.26 3.17499 1028.14 6.37833 1034.24 12.785C1038.99 17.745 1041.37 24.0483 1041.37 31.695C1041.37 43.475 1035.43 51.225 1023.55 54.945V55.41C1030.16 56.96 1035.53 60.06 1039.67 64.71C1043.8 69.2567 1045.87 75.095 1045.87 82.225C1045.87 90.6983 1043.18 97.7767 1037.81 103.46C1031.3 110.487 1022.05 114 1010.06 114H960.616ZM974.566 101.445H1009.44C1017.09 101.445 1022.87 99.585 1026.8 95.865C1030.11 92.3517 1031.76 88.0633 1031.76 83C1031.76 76.2833 1029.64 71.1683 1025.41 67.655C1021.17 64.1417 1015.54 62.385 1008.51 62.385H974.566V101.445ZM974.566 50.605H1005.88C1012.59 50.605 1017.86 49.0033 1021.69 45.8C1025.51 42.5967 1027.42 38.1533 1027.42 32.47C1027.42 27.0967 1025.66 22.9117 1022.15 19.915C1018.74 16.815 1013.94 15.265 1007.74 15.265H974.566V50.605ZM1145.15 100.05C1135.34 110.9 1122.21 116.325 1105.78 116.325C1089.35 116.325 1076.18 110.9 1066.26 100.05C1056.44 89.2 1051.53 75.3533 1051.53 58.51C1051.53 41.6667 1056.44 27.82 1066.26 16.97C1076.18 6.12 1089.35 0.694999 1105.78 0.694999C1122.21 0.694999 1135.34 6.12 1145.15 16.97C1155.07 27.82 1160.03 41.6667 1160.03 58.51C1160.03 75.3533 1155.07 89.2 1145.15 100.05ZM1076.33 91.37C1083.36 99.8433 1093.18 104.08 1105.78 104.08C1118.39 104.08 1128.21 99.8433 1135.23 91.37C1142.26 82.8967 1145.77 71.9433 1145.77 58.51C1145.77 45.0767 1142.26 34.1233 1135.23 25.65C1128.21 17.0733 1118.39 12.785 1105.78 12.785C1093.18 12.785 1083.36 17.0733 1076.33 25.65C1069.31 34.1233 1065.79 45.0767 1065.79 58.51C1065.79 71.9433 1069.31 82.8967 1076.33 91.37ZM1261.44 100.05C1251.63 110.9 1238.5 116.325 1222.07 116.325C1205.64 116.325 1192.47 110.9 1182.55 100.05C1172.73 89.2 1167.82 75.3533 1167.82 58.51C1167.82 41.6667 1172.73 27.82 1182.55 16.97C1192.47 6.12 1205.64 0.694999 1222.07 0.694999C1238.5 0.694999 1251.63 6.12 1261.44 16.97C1271.36 27.82 1276.32 41.6667 1276.32 58.51C1276.32 75.3533 1271.36 89.2 1261.44 100.05ZM1192.62 91.37C1199.65 99.8433 1209.47 104.08 1222.07 104.08C1234.68 104.08 1244.5 99.8433 1251.52 91.37C1258.55 82.8967 1262.06 71.9433 1262.06 58.51C1262.06 45.0767 1258.55 34.1233 1251.52 25.65C1244.5 17.0733 1234.68 12.785 1222.07 12.785C1209.47 12.785 1199.65 17.0733 1192.62 25.65C1185.6 34.1233 1182.08 45.0767 1182.08 58.51C1182.08 71.9433 1185.6 82.8967 1192.62 91.37ZM1288.3 114V3.17499H1302.25V58.2L1356.81 3.17499H1374.33L1329.53 47.505L1378.05 114H1361.77L1320.08 56.96L1302.25 74.785V114H1288.3Z" fill="black"/>
</g>
<defs>
<clipPath id="clip0_849_21">
<rect width="1379" height="117" fill="white"/>
</clipPath>
</defs>
</svg>
